<svg xmlns="http://www.w3.org/2000/svg" viewBox="0 0 96 96" role="img" aria-labelledby="title desc">
  <title id="title">Logo OVA Matemáticas Discretas</title>
  <desc id="desc">Marca circular con nodos, grafo y símbolo de conjunto.</desc>
  <defs>
    <linearGradient id="g" x1="12" y1="84" x2="84" y2="12" gradientUnits="userSpaceOnUse">
      <stop stop-color="#28d58f"/>
      <stop offset="0.55" stop-color="#58b8ff"/>
      <stop offset="1" stop-color="#ffd166"/>
    </linearGradient>
  </defs>
  <rect x="6" y="6" width="84" height="84" rx="24" fill="#07120d"/>
  <path d="M27 32c0-7 5-12 12-12h18c7 0 12 5 12 12v32c0 7-5 12-12 12H39c-7 0-12-5-12-12V32Z" fill="none" stroke="url(#g)" stroke-width="5"/>
  <path d="M35 60c8-10 18-10 26 0M35 36c8 10 18 10 26 0" fill="none" stroke="#f4fbf7" stroke-width="4" stroke-linecap="round"/>
  <circle cx="33" cy="48" r="5" fill="#28d58f"/>
  <circle cx="48" cy="36" r="5" fill="#ffd166"/>
  <circle cx="63" cy="48" r="5" fill="#58b8ff"/>
  <circle cx="48" cy="61" r="5" fill="#ff6b6b"/>
  <path d="M33 48 48 36 63 48 48 61 33 48Z" fill="none" stroke="#ffffff" stroke-opacity="0.62" stroke-width="2"/>
</svg>
